# xmcd CD database file
#
# Track frame offsets:
#	180
#	32783
#	58820
#	81443
#	98376
#	122317
#	148576
#	175313
#	208647
#	245286
#	257690
#	273311
#	290371
#
# Disc length: 4075 seconds
#
# Revision: 0
# Processed by: cddbd v1.5.1PL0 Copyright (c) Steve Scherf et al.
# Submitted via: CDex 1.51
#
DISCID=b40fe90d
DTITLE=Pat "Guitar Slim" Chase - Definitely Live
DYEAR=1995
DGENRE=Blues
TTITLE0=Lonesome Whistle Blues
TTITLE1=Blue Shadows
TTITLE2=Swinging' Party
TTITLE3=The Things I Used To Do
TTITLE4=Christmas Blues
TTITLE5=Down Home Blues
TTITLE6=Bump And Grind
TTITLE7=Three Hours Past Midnite
TTITLE8=Elmore James Medley
TTITLE9=Kindhearted Woman
TTITLE10=I Can't Be Satisfied
TTITLE11=Little Geneva
TTITLE12=Kidney Stew
EXTD=YEAR: 1995
EXTT0=
EXTT1=
EXTT2=
EXTT3=
EXTT4=
EXTT5=
EXTT6=
EXTT7=
EXTT8=
EXTT9=
EXTT10=
EXTT11=
EXTT12=
PLAYORDER=
